<?xml version="1.0" standalone="no"?>
<!DOCTYPE svg PUBLIC "-//W3C//DTD SVG 20010904//EN"
 "http://www.w3.org/TR/2001/REC-SVG-20010904/DTD/svg10.dtd">
<svg version="1.0" xmlns="http://www.w3.org/2000/svg"
 width="1890.000000pt" height="1417.000000pt" viewBox="0 0 1890.000000 1417.000000"
 preserveAspectRatio="xMidYMid meet">

<g transform="translate(0.000000,1417.000000) scale(0.100000,-0.100000)"
fill="#000000" stroke="none">
<path d="M10117 9163 c-3 -5 -35 -24 -71 -42 l-65 -33 -133 5 c-73 2 -155 11
-183 18 -62 17 -341 18 -435 2 -81 -14 -173 -39 -214 -58 -17 -7 -47 -21 -66
-29 -170 -74 -302 -205 -350 -347 -18 -51 -21 -78 -17 -135 5 -69 4 -74 -29
-123 -96 -143 -105 -251 -41 -490 14 -52 29 -97 34 -100 4 -3 22 -34 39 -68
23 -45 35 -58 43 -50 6 6 11 16 11 22 0 15 53 65 68 65 8 0 12 -22 12 -70 0
-63 -2 -70 -20 -70 -11 0 -20 -4 -20 -10 0 -5 9 -15 20 -22 17 -11 20 -24 20
-85 0 -40 -4 -73 -8 -73 -15 0 -60 54 -72 85 -10 26 -13 28 -21 13 -16 -29 1
-66 52 -116 l48 -47 4 -185 c3 -102 8 -204 12 -227 7 -41 6 -43 -18 -43 -37 0
-167 -64 -267 -131 -192 -128 -328 -320 -401 -564 l-32 -110 -5 -472 c-4 -432
-3 -476 13 -530 10 -32 26 -74 36 -93 23 -47 137 -164 185 -189 64 -33 67 -37
75 -88 17 -105 22 -117 59 -125 42 -9 1861 -10 2003 -1 88 5 102 9 134 34 20
16 44 29 53 29 21 0 30 19 30 63 0 41 3 44 71 90 113 77 192 179 217 279 18
72 16 929 -3 1028 -31 168 -121 356 -231 484 -58 67 -80 86 -194 169 -44 32
-175 100 -254 132 l-39 15 7 62 c3 33 6 132 6 219 0 147 1 158 19 164 29 9 98
82 105 111 4 13 2 32 -3 42 -8 15 -11 13 -21 -13 -13 -35 -79 -107 -92 -99 -4
3 -8 39 -8 80 0 70 2 75 25 86 30 13 33 38 5 38 -18 0 -20 7 -20 75 0 55 3 75
13 75 18 0 61 -47 82 -89 13 -26 19 -31 26 -20 5 8 9 27 9 43 0 15 14 57 31
92 27 57 36 90 69 239 25 112 -1 238 -69 338 -39 57 -40 59 -34 126 8 97 -21
184 -95 281 l-57 75 -5 135 c-4 115 -7 135 -22 138 -9 2 -19 -1 -21 -5z m-894
-795 c67 -17 110 -21 232 -21 122 0 165 4 232 21 117 31 131 29 202 -24 135
-101 224 -247 250 -410 5 -33 6 -62 3 -66 -4 -3 -25 -8 -46 -10 -38 -3 -40 -1
-46 28 -14 65 -33 74 -228 105 -170 28 -187 23 -212 -51 -8 -25 -29 -59 -47
-77 -17 -17 -33 -37 -35 -44 -3 -9 -9 -9 -25 0 -26 13 -82 14 -102 2 -22 -14
-96 64 -110 116 -13 48 -42 73 -86 73 -53 0 -298 -50 -321 -65 -12 -8 -27 -30
-34 -50 -10 -30 -16 -35 -44 -35 -18 0 -35 2 -38 5 -14 15 27 167 67 250 47
95 94 152 188 228 67 55 82 56 200 25z m24 -505 c81 -22 116 -82 108 -185 -6
-64 -38 -120 -88 -155 -35 -24 -52 -28 -125 -32 -101 -4 -150 9 -198 51 -46
40 -64 86 -64 163 0 52 4 68 29 102 56 77 186 99 338 56z m602 16 c81 -13 114
-30 146 -76 49 -73 27 -206 -44 -266 -44 -37 -102 -50 -198 -45 -65 3 -88 9
-116 28 -96 66 -124 217 -57 303 13 16 41 32 73 41 97 27 114 29 196 15z
m-1007 -145 c-5 -107 11 -157 68 -214 54 -55 99 -70 207 -70 96 0 155 19 201
63 49 47 65 83 76 176 12 95 26 112 73 95 26 -9 29 -15 35 -77 8 -88 24 -131
61 -173 48 -56 100 -77 197 -82 47 -2 103 1 126 7 66 18 122 65 151 128 22 48
25 65 21 138 l-4 83 40 5 c22 3 44 3 50 0 14 -9 -1 -230 -23 -311 -11 -41 -32
-98 -46 -129 -33 -66 -124 -162 -183 -192 l-43 -22 -67 50 c-37 27 -94 58
-127 69 -46 16 -61 26 -63 42 -6 34 -35 20 -45 -23 -13 -52 -55 -81 -109 -74
-49 7 -78 32 -87 78 -8 39 -38 52 -43 18 -2 -16 -16 -25 -60 -39 -31 -10 -86
-38 -122 -64 -35 -25 -71 -46 -79 -46 -21 0 -97 56 -139 104 -53 58 -105 168
-122 256 -16 84 -29 274 -19 284 4 3 23 5 42 3 l36 -2 -3 -81z m664 -768 c29
-22 4 -40 -56 -40 -60 0 -85 18 -56 40 11 8 36 14 56 14 20 0 45 -6 56 -14z
m-744 -84 c44 -122 170 -256 300 -320 132 -64 149 -67 388 -67 240 0 279 7
400 72 127 69 213 159 276 291 19 39 37 72 40 72 13 0 162 -65 191 -84 l33
-21 0 -282 0 -282 -32 -3 c-18 -2 -439 -2 -935 0 l-903 2 0 279 c0 258 1 279
19 295 15 14 186 95 201 96 3 0 13 -21 22 -48z m1758 -709 l30 -28 0 -635 c0
-349 0 -641 0 -648 0 -10 -216 -11 -1092 -7 l-1093 4 -3 640 -2 639 29 31 29
31 1036 0 1036 0 30 -27z"/>
<path d="M9145 7626 c-32 -49 23 -103 72 -70 28 18 30 55 5 77 -26 24 -59 21
-77 -7z"/>
<path d="M9740 7630 c-23 -23 -24 -33 -10 -61 12 -22 59 -26 78 -7 19 19 15
66 -7 78 -28 14 -38 13 -61 -10z"/>
<path d="M8396 6105 c-12 -31 -7 -162 7 -173 28 -24 38 2 35 94 -2 72 -6 89
-19 92 -9 2 -19 -4 -23 -13z"/>
<path d="M10142 6042 c-33 -5 -24 -35 13 -43 25 -5 20 -6 -25 -10 -30 -3 -62
-9 -72 -13 -12 -5 -16 -3 -15 11 3 31 -39 28 -82 -6 -40 -32 -93 -124 -84
-148 3 -9 13 -11 26 -7 16 5 19 3 14 -11 -4 -9 -7 -29 -7 -43 l0 -26 -16 22
c-8 12 -20 20 -25 17 -17 -11 -9 -94 15 -147 43 -98 152 -168 260 -168 106 0
218 75 266 176 28 61 25 166 -7 234 -47 98 -172 176 -261 162z m113 -136 c30
-23 65 -72 65 -91 0 -3 -9 -5 -20 -5 -11 0 -20 -7 -20 -15 0 -19 -57 -98 -63
-88 -13 22 -18 111 -7 118 8 5 -2 13 -26 21 -22 8 -40 14 -42 14 -2 0 0 -15 4
-34 4 -25 1 -44 -12 -65 -31 -53 -42 -41 -46 47 -2 61 -3 62 -36 73 -31 10
-32 13 -19 26 23 23 104 41 148 33 21 -4 54 -19 74 -34z m-231 -34 c2 -4 9
-52 16 -107 6 -55 14 -103 18 -107 4 -4 25 15 46 42 21 27 42 48 46 45 4 -2
10 -32 14 -65 4 -33 10 -60 14 -60 4 0 18 17 32 37 57 86 103 142 111 137 14
-8 11 -68 -5 -105 -17 -41 -71 -94 -109 -108 -118 -45 -247 49 -247 178 0 72
42 147 64 113z"/>
<path d="M8703 5482 l-133 -3 0 -229 0 -229 55 -20 c31 -12 60 -21 65 -21 6 0
38 -10 71 -21 63 -22 136 -22 176 0 10 5 55 22 101 36 l82 27 0 221 c0 122 -4
227 -8 232 -7 10 -153 13 -409 7z m117 -268 l0 -222 -47 13 c-72 19 -147 49
-155 60 -4 6 -8 90 -8 187 0 204 -15 182 128 184 l82 1 0 -223z m255 33 c1
-120 -3 -191 -10 -195 -14 -9 -178 -62 -192 -62 -10 0 -13 52 -13 225 l0 226
108 -3 107 -3 0 -188z"/>
<path d="M8396 5215 c-3 -9 -6 -88 -6 -174 l0 -158 25 5 25 4 -2 167 c-3 144
-5 166 -19 169 -9 2 -19 -4 -23 -13z"/>
</g>
</svg>
