<?xml version="1.0" standalone="no"?>
<!DOCTYPE svg PUBLIC "-//W3C//DTD SVG 20010904//EN"
 "http://www.w3.org/TR/2001/REC-SVG-20010904/DTD/svg10.dtd">
<svg version="1.0" xmlns="http://www.w3.org/2000/svg"
 width="1199.000000pt" height="619.000000pt" viewBox="0 0 1199.000000 619.000000"
 preserveAspectRatio="xMidYMid meet">

<g transform="translate(0.000000,619.000000) scale(0.100000,-0.100000)"
fill="#000000" stroke="none">
<path d="M4369 4603 c-62 -26 -59 29 -59 -1105 0 -806 3 -1038 13 -1058 7 -14
28 -33 47 -42 31 -16 71 -18 372 -18 l337 0 3 -263 c3 -259 3 -263 28 -312 22
-43 81 -100 142 -140 9 -5 18 -27 21 -47 l6 -38 -162 -2 c-102 -2 -161 -7
-160 -13 2 -7 340 -11 983 -13 867 -2 980 0 980 13 0 12 -18 15 -101 15 -88 0
-100 2 -95 16 3 9 6 26 6 40 0 16 9 28 31 40 50 25 99 75 128 129 26 50 26 51
29 313 l3 262 335 0 c369 0 389 3 418 59 14 27 16 145 16 1063 0 1009 -1 1034
-20 1065 -11 18 -30 35 -42 38 -13 3 -745 7 -1627 8 -1210 1 -1611 -1 -1632
-10z m3270 -37 c20 -18 21 -29 21 -173 l0 -153 -602 2 -603 3 3 39 c6 58 -8
146 -21 146 -7 0 -34 -11 -61 -25 -55 -28 -125 -33 -217 -14 -71 14 -238 14
-320 0 -87 -14 -200 -62 -265 -111 l-53 -40 -590 0 -590 0 -6 33 c-4 19 -5 87
-3 152 4 114 5 119 32 142 l27 23 1614 -2 c1570 -3 1613 -4 1634 -22z m-2139
-350 c0 -2 -12 -25 -27 -52 -21 -38 -28 -64 -30 -118 -1 -54 -7 -76 -27 -105
-29 -43 -46 -100 -46 -157 0 -54 37 -198 62 -240 14 -23 18 -42 13 -63 -10
-44 13 -111 50 -148 l33 -33 4 -140 c2 -101 0 -140 -8 -140 -6 0 -46 -16 -88
-35 -101 -46 -225 -166 -279 -272 -41 -78 -77 -203 -77 -265 l0 -38 -344 0
c-189 0 -352 3 -361 6 -45 18 -45 10 -45 927 0 475 3 867 7 870 6 7 1163 10
1163 3z m2160 -8 c0 -7 0 -393 0 -858 0 -465 0 -857 0 -872 0 -16 -9 -37 -20
-48 -19 -19 -33 -20 -369 -20 l-349 0 -7 66 c-17 159 -74 274 -195 394 -85 83
-118 104 -244 150 -25 9 -28 14 -22 41 3 18 6 80 6 140 0 87 3 109 14 109 22
0 74 66 81 102 3 18 4 56 4 83 -1 33 8 79 28 134 47 133 41 240 -17 319 -16
21 -22 45 -23 98 -2 54 -9 80 -30 118 -15 27 -27 50 -27 52 0 2 263 4 585 4
461 0 585 -3 585 -12z m-1816 -293 c67 -20 243 -20 317 1 56 16 59 16 92 -5
78 -48 147 -145 173 -246 19 -69 18 -72 -16 -77 -22 -3 -30 -1 -30 11 -1 38
-28 52 -131 71 -116 21 -132 17 -155 -33 -26 -59 -44 -73 -99 -72 -55 0 -74
14 -100 73 -21 47 -44 51 -158 31 -97 -18 -126 -33 -127 -66 0 -7 -11 -13 -25
-13 -14 0 -25 6 -25 13 1 32 23 105 47 154 29 59 142 173 171 173 9 0 39 -7
66 -15z m-6 -316 c68 -14 96 -45 96 -108 0 -89 -47 -132 -146 -133 -76 -2
-120 20 -143 68 -41 86 0 162 95 177 44 7 48 7 98 -4z m426 1 c79 -18 117 -98
82 -172 -24 -50 -61 -68 -144 -68 -61 0 -75 3 -101 26 -33 28 -52 79 -45 122
8 51 26 72 73 87 55 16 83 18 135 5z m-734 -91 c0 -31 -4 -48 -10 -44 -5 3
-10 -1 -10 -9 0 -9 5 -16 10 -16 6 0 10 -23 10 -51 0 -46 -2 -50 -16 -38 -50
41 -59 130 -18 178 14 17 28 31 30 31 2 0 4 -23 4 -51z m82 -11 c-3 -53 0 -69
20 -98 32 -48 80 -70 153 -70 108 0 163 46 174 145 4 38 12 62 23 68 26 17 48
-9 48 -57 0 -95 68 -156 175 -156 73 0 121 22 153 70 20 29 23 45 20 98 l-3
62 33 0 32 0 0 -52 c0 -70 -23 -176 -50 -227 -23 -47 -91 -117 -122 -127 -13
-4 -33 4 -61 24 -23 16 -58 35 -79 41 -20 7 -39 18 -42 26 -8 22 -26 18 -26
-4 0 -20 -44 -61 -65 -61 -21 0 -65 41 -65 61 0 10 -4 19 -10 19 -5 0 -10 -7
-10 -15 0 -8 -14 -17 -35 -21 -19 -3 -56 -22 -82 -42 l-46 -36 -36 21 c-83 47
-139 163 -148 306 l-6 87 29 0 29 0 -3 -62z m874 54 c61 -42 57 -170 -7 -210
-18 -11 -19 -9 -19 42 0 39 4 55 15 60 8 3 15 10 15 15 0 6 -7 8 -15 5 -12 -5
-15 4 -15 45 0 50 5 58 26 43z m-451 -533 c10 -16 -2 -23 -40 -23 -19 0 -37 3
-41 6 -13 14 8 28 41 28 19 0 37 -5 40 -11z m-438 -116 c81 -126 206 -183 400
-183 206 0 339 69 414 215 38 72 34 71 127 28 l52 -24 0 -185 0 -184 -590 0
-590 0 0 185 0 184 32 17 c17 9 47 22 67 29 33 12 37 11 45 -9 5 -11 25 -44
43 -73z m1074 -382 l24 -19 0 -409 0 -408 -697 -3 -698 -2 0 409 0 410 26 20
c26 21 34 21 674 21 623 0 649 -1 671 -19z"/>
<path d="M4494 4481 c-35 -21 -49 -58 -35 -93 12 -31 31 -47 69 -54 26 -5 36
-1 62 24 39 39 39 74 1 113 -34 34 -54 36 -97 10z"/>
<path d="M4755 4490 c-28 -11 -44 -31 -51 -66 -7 -35 23 -79 61 -88 34 -9 83
18 96 52 14 35 -11 89 -47 102 -29 12 -32 12 -59 0z"/>
<path d="M4981 4474 c-70 -58 -11 -162 75 -134 38 13 54 35 54 75 0 39 -16 62
-51 74 -43 15 -43 15 -78 -15z"/>
<path d="M4530 3950 c0 -6 58 -10 154 -10 93 0 157 4 161 10 4 7 -50 10 -154
10 -101 0 -161 -4 -161 -10z"/>
<path d="M4530 3830 c0 -6 82 -10 225 -10 143 0 225 4 225 10 0 6 -82 10 -225
10 -143 0 -225 -4 -225 -10z"/>
<path d="M4530 3330 c0 -6 82 -10 225 -10 143 0 225 4 225 10 0 6 -82 10 -225
10 -143 0 -225 -4 -225 -10z"/>
<path d="M4530 3210 c0 -6 65 -10 175 -10 110 0 175 4 175 10 0 6 -65 10 -175
10 -110 0 -175 -4 -175 -10z"/>
<path d="M4530 2840 c0 -6 65 -10 175 -10 110 0 175 4 175 10 0 6 -65 10 -175
10 -110 0 -175 -4 -175 -10z"/>
<path d="M4530 2710 c0 -6 58 -10 155 -10 97 0 155 4 155 10 0 6 -58 10 -155
10 -97 0 -155 -4 -155 -10z"/>
<path d="M5802 3443 c-13 -24 3 -53 29 -53 24 0 36 27 22 49 -15 23 -40 25
-51 4z"/>
<path d="M6183 3453 c-15 -6 -17 -49 -3 -58 33 -20 65 26 38 53 -13 13 -16 13
-35 5z"/>
<path d="M5329 2468 c-4 -82 -1 -108 11 -108 6 0 10 28 10 65 0 37 -4 65 -10
65 -5 0 -10 -10 -11 -22z"/>
<path d="M6420 2426 c0 -11 9 -16 28 -16 15 0 32 -4 39 -8 6 -4 -18 -7 -53 -7
-44 0 -64 4 -64 13 0 16 -6 15 -40 -4 -32 -20 -60 -63 -60 -94 0 -20 2 -21 17
-9 14 12 16 12 8 -1 -5 -8 -9 -30 -8 -50 0 -28 0 -29 -4 -7 -6 41 -29 28 -24
-14 9 -89 78 -149 171 -149 66 0 111 19 146 63 31 40 35 53 35 120 0 88 -59
155 -153 172 -31 6 -38 4 -38 -9z m105 -98 c24 -28 26 -33 12 -36 -9 -2 -17
-9 -17 -17 0 -7 -7 -18 -15 -25 -8 -7 -15 -18 -15 -24 0 -6 14 5 30 24 l29 35
1 -38 c0 -31 -7 -46 -35 -74 -33 -33 -38 -35 -87 -31 -42 4 -57 11 -80 37 -40
45 -39 107 2 155 49 55 121 52 175 -6z m62 -85 c-3 -10 -5 -2 -5 17 0 19 2 27
5 18 2 -10 2 -26 0 -35z m-134 -140 c-7 -2 -21 -2 -30 0 -10 3 -4 5 12 5 17 0
24 -2 18 -5z"/>
<path d="M6365 2288 c4 -29 9 -64 11 -78 l6 -25 29 35 c15 19 29 32 30 28 1
-5 3 -12 4 -18 1 -5 3 -21 4 -35 1 -30 12 -32 28 -6 8 14 9 29 1 61 -9 34 -8
44 3 51 11 7 11 9 -3 9 -9 0 -23 3 -31 6 -12 4 -14 0 -10 -14 5 -22 -12 -62
-27 -62 -6 0 -10 20 -10 44 0 31 -5 46 -16 50 -25 9 -25 9 -19 -46z"/>
<path d="M5442 1933 l3 -146 75 -24 c82 -25 108 -27 142 -14 13 5 44 17 71 26
l47 17 0 144 0 144 -170 0 -171 0 3 -147z m313 -2 l0 -124 -35 -12 c-20 -7
-50 -16 -68 -20 l-32 -7 0 147 0 146 68 -3 67 -3 0 -124z m-155 -21 c0 -77 -3
-140 -7 -140 -5 0 -36 10 -70 22 l-63 23 0 117 0 118 70 0 70 0 0 -140z"/>
<path d="M5328 1913 c-1 -5 -2 -54 -2 -109 -1 -77 2 -100 12 -97 15 6 18 213
2 213 -5 0 -11 -3 -12 -7z"/>
<path d="M4416 2243 c-3 -4 -6 -52 -6 -109 0 -57 -4 -104 -10 -106 -6 -2 -4
-79 5 -213 8 -115 15 -216 15 -222 0 -10 -33 -13 -130 -13 -109 0 -130 -2
-130 -15 0 -13 49 -15 380 -15 331 0 380 2 380 15 0 11 -11 15 -40 15 -47 0
-44 -26 -28 243 8 147 8 201 0 206 -7 4 -12 48 -14 111 l-3 105 -206 2 c-114
1 -209 -1 -213 -4z m64 -119 c0 -86 -2 -95 -17 -92 -15 3 -18 16 -21 82 -3 89
0 106 23 106 12 0 15 -16 15 -96z m68 -27 c1 -64 0 -117 -4 -117 -23 0 -33 42
-34 138 0 93 2 103 18 100 15 -3 17 -18 20 -121z m62 -18 c0 -125 -2 -140 -16
-135 -9 3 -18 6 -20 6 -7 0 -4 256 3 263 3 4 12 7 20 7 10 0 13 -30 13 -141z
m68 7 c3 -126 -1 -145 -30 -146 -5 0 -8 63 -8 141 0 128 2 140 18 137 15 -3
17 -19 20 -132z m62 26 c0 -100 -7 -132 -30 -132 -4 0 -5 51 -3 113 2 61 3
115 3 120 0 4 7 7 15 7 12 0 15 -19 15 -108z m70 13 c0 -88 -1 -95 -20 -95
-19 0 -20 7 -20 95 0 88 1 95 20 95 19 0 20 -7 20 -95z m-119 -314 c38 -39 39
-87 3 -130 -68 -82 -201 7 -153 102 32 63 102 75 150 28z"/>
<path d="M7030 2074 c-19 -48 -8 -144 16 -144 10 0 14 -14 14 -47 0 -46 21
-203 35 -270 l7 -32 -73 -3 c-43 -2 -73 -7 -71 -13 3 -16 554 -13 560 3 3 9
-15 12 -66 12 l-69 0 13 73 c7 39 16 116 20 170 6 81 10 100 26 108 14 8 18
21 18 64 0 29 -4 65 -10 79 l-10 26 -200 0 -200 0 -10 -26z m303 -11 c-51 -2
-135 -2 -185 0 -51 1 -10 3 92 3 102 0 143 -2 93 -3z m97 -68 l0 -35 -187 2
-188 3 -3 33 -3 32 190 0 191 0 0 -35z m-40 -85 c0 -19 -7 -20 -150 -20 -143
0 -150 1 -150 20 0 19 7 20 150 20 143 0 150 -1 150 -20z m-100 -100 c11 -11
20 -30 20 -43 0 -31 -35 -67 -65 -67 -26 0 -65 42 -65 71 0 27 36 59 65 59 14
0 34 -9 45 -20z m70 -175 c0 -5 -3 -20 -6 -32 -6 -22 -11 -23 -114 -23 l-108
0 -4 30 -4 29 75 3 c127 5 161 3 161 -7z"/>
<path d="M7224 1786 c-10 -26 0 -51 21 -51 16 0 20 7 20 30 0 33 -30 49 -41
21z m23 -28 c-3 -8 -6 -5 -6 6 -1 11 2 17 5 13 3 -3 4 -12 1 -19z"/>
<path d="M7552 1568 c3 -8 29 -14 71 -16 55 -2 67 0 67 13 0 12 -14 15 -71 15
-52 0 -70 -3 -67 -12z"/>
</g>
</svg>
